<svg width="600" height="480" xmlns="http://www.w3.org/2000/svg" xmlns:xlink="http://www.w3.org/1999/xlink" overflow="hidden"><path d="M0 0C6.67096-0.529441 10.0375 0.245533 15.6641 3.76953 18.2475 5.13039 20.4383 5.60313 23.3125 6.0625 27.4258 6.75016 29.4859 7.48028 32 11 32.5878 12.2066 32.5878 12.2066 33.1875 13.4375 35.5598 16.7914 38.2997 18.0071 41.9414 19.7891 44 21 44 21 46 24 46.3251 25.7198 46.5897 27.4515 46.8125 29.1875 48.3022 37.9297 52.261 42.6088 59 48 60.7567 50.7149 61 51.7143 61 55 50.9472 53.14 44.6827 41.6936 39 34 35.0285 28.6577 31.3294 24.0295 26 20 29.0992 35.1731 41.4965 44.7393 52.1123 55.144 53.0467 56.0627 53.0467 56.0627 54 57 54.739 57.6963 55.4779 58.3925 56.2393 59.1099 58 61 58 61 58 63 58.6922 62.7588 59.3845 62.5176 60.0977 62.269 77.817 56.1321 95.5741 50.614 114 47 126.636 103.343 126.636 103.343 111 129 104.683 137.57 96.8699 143.369 88 149 88.825 149.742 89.65 150.485 90.5 151.25 93 154 93 154 93 158 83.5123 163.131 73.8108 167.42 63.75 171.312 62.1367 171.943 62.1367 171.943 60.4907 172.585 53.4298 175.272 46.3684 177.336 39 179 38.875 171.25 38.875 171.25 40 169 38.3719 169.24 38.3719 169.24 36.7109 169.484 31.3514 170.149 26.0202 170.222 20.625 170.25 19.6479 170.271 18.6708 170.291 17.6641 170.312 1.53841 170.398-11.4376 162.852-23 152-31.8841 142.801-38.6055 131.879-45.533 121.191-46.9741 118.97-46.9741 118.97-48.6877 116.902-50 115-50 115-50 112-46.4077 110.06-42.8147 108.121-39.2212 106.183-38.001 105.525-36.7809 104.867-35.561 104.208-33.799 103.256-32.0362 102.306-30.2734 101.355-28.6867 100.499-28.6867 100.499-27.0679 99.6257-24.0676 98.0358-21.0433 96.5057-18 95-18.6394 94.7113-19.2787 94.4225-19.9375 94.125-22 93-22 93-23 91-23.1472 89.1916-23.2211 87.3767-23.25 85.5625-23.2758 84.5944-23.3016 83.6263-23.3281 82.6289-23 80-23 80-21.7539 78.1797-18.453 75.9595-14.8072 76.3849-11 77-8.64541 78.1055-7.03249 79.3323-5 81-5.33 83.31-5.66 85.62-6 88-2.0078 87.2074 1.60247 85.5282 5.30859 83.9023 6.78378 83.2623 8.25904 82.6224 9.73438 81.9827 10.5033 81.6481 11.2722 81.3135 12.0645 80.9688 23.1383 76.1563 34.2166 71.367 45.5 67.0625 46.3397 66.7395 47.1795 66.4165 48.0447 66.0837 51.1547 64.9189 53.6511 64 57 64 57 63.34 57 62.68 57 62 56.0564 62.0522 56.0564 62.0522 55.0938 62.1055 49.3333 62.2877 43.8448 62.4564 39 59 36.7075 56.2738 34.7124 53.4756 32.7617 50.4961 29.5726 45.9776 26.1591 45.5005 21.0586 44.5625 19 44 19 44 17 42 16.7617 39.8281 16.7617 39.8281 16.6875 37.25 16.24 31.7932 14.8861 29.7978 11 26 10.175 25.3194 9.35 24.6388 8.5 23.9375 5.15359 20.0055 3.81222 15.7976 2.11328 10.9609 1.08096 7.87619 1.08096 7.87619-1 5-0.625 2.3125-0.625 2.3125 0 0Z" fill="#445FAA" transform="translate(265 121)"/><path d="M0 0C2.09595 5.30973 2.6553 10.3565 3 16 3.06574 16.9075 3.13148 17.815 3.19922 18.75 3.69589 31.3551 0.543821 43.7959-7 54-7.43957 54.62-7.87914 55.2401-8.33203 55.8789-17.2708 67.3937-32.3123 74.646-45.5 80.0625-46.5416 80.493-47.5831 80.9234-48.6562 81.3669-67.155 88.8495-89.6516 95.9217-109.203 88.3125-122.622 82.0155-134.827 71.1069-142 58-140.781 54.3435-140.028 54.1811-136.695 52.4844-134.844 51.5615-132.987 50.6505-131.125 49.75-130.22 49.2782-129.315 48.8064-128.383 48.3203-121.546 44.9993-116.448 44.5743-109 46-109 44.02-109 42.04-109 40-107.68 40.33-106.36 40.66-105 41-105 40.01-105 39.02-105 38-78.418 26.193-51.4927 15.802-24 6.3125-23.0894 5.99596-22.1788 5.67943-21.2406 5.3533-18.6423 4.45241-16.0406 3.56241-13.4375 2.67578-12.6586 2.40449-11.8796 2.13321-11.0771 1.8537-7.265 0.569577-4.08286-0.346133 0 0Z" fill="#F7EDE9" transform="translate(376 193)"/><path d="M0 0C6.67096-0.529441 10.0375 0.245533 15.6641 3.76953 18.2475 5.13039 20.4383 5.60313 23.3125 6.0625 27.4258 6.75016 29.4859 7.48028 32 11 32.5878 12.2066 32.5878 12.2066 33.1875 13.4375 35.5598 16.7914 38.2997 18.0071 41.9414 19.7891 44 21 44 21 46 24 46.3251 25.7198 46.5897 27.4515 46.8125 29.1875 48.3022 37.9297 52.261 42.6088 59 48 60.7567 50.7149 61 51.7143 61 55 50.9472 53.14 44.6827 41.6936 39 34 35.0285 28.6577 31.3294 24.0295 26 20 29.1307 35.3272 44.2455 50.497 57 59 57 59.99 57 60.98 57 62 44.1979 62.7083 44.1979 62.7083 39 59 36.7075 56.2738 34.7124 53.4756 32.7617 50.4961 29.5726 45.9776 26.1591 45.5005 21.0586 44.5625 19 44 19 44 17 42 16.7617 39.8281 16.7617 39.8281 16.6875 37.25 16.24 31.7932 14.8861 29.7978 11 26 9.7625 24.9791 9.7625 24.9791 8.5 23.9375 5.15359 20.0055 3.81222 15.7976 2.11328 10.9609 1.08096 7.87619 1.08096 7.87619-1 5-0.625 2.3125-0.625 2.3125 0 0Z" fill="#688244" transform="translate(265 121)"/><path d="M0 0C0.33 2.64 0.66 5.28 1 8-0.360887 8.44316-0.360887 8.44316-1.74927 8.89526-39.7741 21.3056-76.7985 35.2442-113.25 51.75-113.937 52.0606-114.623 52.3711-115.331 52.6911-117.331 53.5979-119.33 54.5089-121.328 55.4219-121.968 55.7128-122.607 56.0037-123.266 56.3035-126.546 57.8108-129.769 59.3839-132.955 61.0801-133.591 61.4147-134.227 61.7493-134.882 62.0941-136.629 63.0219-138.365 63.9698-140.101 64.9189-143 66-143 66-145.267 65.4951-147.481 63.5854-148.129 61.7572-149 59-145.735 57.1564-142.462 55.3269-139.188 53.5-138.259 52.9754-137.33 52.4507-136.373 51.9102-135.48 51.4139-134.588 50.9176-133.668 50.4062-132.846 49.9454-132.024 49.4846-131.177 49.0098-129 48-129 48-126 48-125.526 48.6394-125.051 49.2788-124.562 49.9375-123.003 52.4432-123.003 52.4432-119 53-119 49.7-119 46.4-119 43-84.4072 26.5331-48.9515 12.5869-12.0625 2.125-11.3104 1.9094-10.5583 1.69381-9.78345 1.47168-6.35804 0.521688-3.58523 0 0 0Z" fill="#F3EAE8" transform="translate(374 177)"/><path d="M0 0C10.6467 4.19762 18.2485 11.8594 22.9805 22.1445 24.2653 25.7429 24.5127 28.2399 24 32 18.4198 33.5738 13.4157 34.3589 7.625 34.3125 6.88186 34.3069 6.13871 34.3012 5.37305 34.2954-5.94463 34.0463-14.3252 30.2695-22.625 22.5625-24.5954 18.8903-24.1799 16.956-23 13-18.2534 5.65044-9.30079-2.55316 0 0Z" fill="#F283AB" transform="translate(299 223)"/><path d="M0 0C2.97 0 5.94 0 9 0 9 13.53 9 27.06 9 41 4.38 41-0.24 41-5 41-7.64 32.09-10.28 23.18-13 14-13.33 22.91-13.66 31.82-14 41-16.64 41-19.28 41-22 41-22 27.8-22 14.6-22 1-17.71 1-13.42 1-9 1-6.20805 7.6403-3.53084 14.2511-1 21-0.67 14.07-0.34 7.14 0 0Z" fill="#425EAA" transform="translate(152 326)"/><path d="M0 0C5.04281-0.0928125 5.04281-0.0928125 10.1875-0.1875 11.7637-0.228468 11.7637-0.228468 13.3718-0.270264 19.6075-0.32587 23.2063 0.302629 27.8125 4.75 29.5525 8.04677 29.4441 10.3206 29 14 26.1134 19.567 26.1134 19.567 22.75 20.875 22.1725 20.9163 21.595 20.9575 21 21 21 21.66 21 22.32 21 23 21.6187 23.2681 22.2375 23.5362 22.875 23.8125 25 25 25 25 27 28 28.114 32.0106 28.0812 35.8564 28 40 24.37 40 20.74 40 17 40 16.7319 38.4531 16.4638 36.9062 16.1875 35.3125 15.3946 31.3425 14.5215 28.2569 12 25 11.34 24.67 10.68 24.34 10 24 10 29.28 10 34.56 10 40 6.7 40 3.4 40 0 40 0 26.8 0 13.6 0 0Z" fill="#405DA9" transform="translate(236 327)"/><path d="M0 0C5.04281-0.0928125 5.04281-0.0928125 10.1875-0.1875 11.7637-0.228468 11.7637-0.228468 13.3718-0.270264 19.6075-0.32587 23.2063 0.302629 27.8125 4.75 29.5525 8.04677 29.4441 10.3206 29 14 27.375 17.375 27.375 17.375 25 20 21.75 20.875 21.75 20.875 19 21 19 21.66 19 22.32 19 23 19.7631 23.0825 20.5263 23.165 21.3125 23.25 24.5747 24.1604 25.3111 25.1289 27 28 28.3702 32.1106 28.0628 35.6691 28 40 24.37 40 20.74 40 17 40 16.8298 39.0964 16.6597 38.1927 16.4844 37.2617 16.242 36.0822 15.9997 34.9027 15.75 33.6875 15.518 32.5157 15.2859 31.344 15.0469 30.1367 14.1771 26.5402 14.1771 26.5402 10 24 10 29.28 10 34.56 10 40 6.7 40 3.4 40 0 40 0 26.8 0 13.6 0 0Z" fill="#405CA9" transform="translate(343 327)"/><path d="M0 0C3.3 0 6.6 0 10 0 10.0198 0.741614 10.0396 1.48323 10.0601 2.24731 10.1552 5.60274 10.2649 8.95753 10.375 12.3125 10.4059 13.4797 10.4369 14.647 10.4688 15.8496 10.5074 16.9679 10.5461 18.0861 10.5859 19.2383 10.6174 20.2699 10.6488 21.3016 10.6812 22.3645 10.8267 25.2284 10.8267 25.2284 13 28 16 28.5 16 28.5 19 28 21.2587 24.6119 21.2926 23.2265 21.4141 19.2383 21.4527 18.12 21.4914 17.0018 21.5312 15.8496 21.5622 14.6824 21.5931 13.5151 21.625 12.3125 21.6637 11.1337 21.7023 9.9548 21.7422 8.74023 21.8365 5.82698 21.9221 2.91373 22 0 25.3 0 28.6 0 32 0 32.0745 4.16256 32.1288 8.32476 32.1648 12.4878 32.1798 13.9019 32.2002 15.316 32.2263 16.73 32.263 18.7706 32.2798 20.8106 32.293 22.8516 32.3087 24.077 32.3244 25.3024 32.3406 26.5649 31.8381 31.6333 30.2252 34.8667 26.5 38.3125 21.355 41.7854 16.0026 41.4723 10 41 6.22325 39.7186 4.59209 38.7758 2.1875 35.625 0.0534174 30.9076-0.121109 26.523-0.0976562 21.3867-0.0944336 20.1396-0.0912109 18.8924-0.0878906 17.6074-0.0753223 15.6671-0.0753223 15.6671-0.0625 13.6875-0.0579883 12.3746-0.0534766 11.0617-0.0488281 9.70898-0.0370595 6.47261-0.0206176 3.23633 0 0Z" fill="#3F5CA9" transform="translate(167 327)"/><path d="M0 0C3.3 0 6.6 0 10 0 10.0198 0.741614 10.0396 1.48323 10.0601 2.24731 10.1552 5.60274 10.2649 8.95753 10.375 12.3125 10.4059 13.4797 10.4369 14.647 10.4688 15.8496 10.5074 16.9679 10.5461 18.0861 10.5859 19.2383 10.6174 20.2699 10.6488 21.3016 10.6812 22.3645 10.8267 25.2284 10.8267 25.2284 13 28 16 28.5 16 28.5 19 28 21.2587 24.6119 21.2926 23.2265 21.4141 19.2383 21.4527 18.12 21.4914 17.0018 21.5312 15.8496 21.5622 14.6824 21.5931 13.5151 21.625 12.3125 21.6637 11.1337 21.7023 9.9548 21.7422 8.74023 21.8365 5.82698 21.9221 2.91373 22 0 25.3 0 28.6 0 32 0 32.0583 4.52078 32.0937 9.04146 32.125 13.5625 32.1418 14.8393 32.1585 16.1161 32.1758 17.4316 32.2521 32.1266 32.2521 32.1266 28.1875 37.3125 22.6811 41.5603 16.7115 41.8081 10 41 4.85146 38.4257 1.81799 35.454 0 30-0.0837863 27.7161-0.107299 25.4299-0.0976562 23.1445-0.0962413 22.4829-0.0948263 21.8213-0.0933685 21.1396-0.08778 19.0305-0.0752297 16.9215-0.0625 14.8125-0.0574835 13.3809-0.0529209 11.9492-0.0488281 10.5176-0.0378143 7.01168-0.0205576 3.50585 0 0Z" fill="#3F5CA9" transform="translate(376 327)"/><path d="M0 0C0.142857 8.57143 0.142857 8.57143-1 12-1.54141 11.8363-2.08281 11.6726-2.64062 11.5039-5.40223 10.9141-7.92818 10.9039-10.75 10.9375-11.7348 10.9465-12.7197 10.9555-13.7344 10.9648-14.8559 10.9822-14.8559 10.9822-16 11-16 11.99-16 12.98-16 14-15.1802 14.2423-14.3603 14.4847-13.5156 14.7344-11.8991 15.2371-11.8991 15.2371-10.25 15.75-9.18266 16.0748-8.11531 16.3997-7.01562 16.7344-3.79088 18.0878-2.11957 19.2329 0 22 0.931843 26.1016 0.424376 29.9391-1.125 33.8125-4.30421 37.5216-6.84997 39.7346-11.8477 40.3516-17.6909 40.5109-22.0918 40.2721-27 37-26.34 33.7-25.68 30.4-25 27-24.01 27.165-23.02 27.33-22 27.5-17.9727 28.0847-14.0653 28.0713-10 28-9.34 26.68-8.68 25.36-8 24-8.72445 23.8298-9.44891 23.6597-10.1953 23.4844-15.8849 22.0582-20.4293 20.7287-25 17-26.8511 13.2978-26.4645 9.04093-26 5-20.4081-4.58606-9.27503-3.29779 0 0Z" fill="#435FAB" transform="translate(440 328)"/><path d="M0 0C0.33 0.66 0.66 1.32 1 2 1.76312 2.22688 2.52625 2.45375 3.3125 2.6875 7.05613 4.51578 8.33681 7.33648 10 11 11.1328 14.333 11.9913 17.7036 12.8125 21.125 13.0413 22.0054 13.2701 22.8859 13.5059 23.793 15.6004 32.2863 15.6004 32.2863 14 36 12.0039 38.0195 12.0039 38.0195 9.5625 39.8125 8.75941 40.4171 7.95633 41.0216 7.12891 41.6445 5 43 5 43 3 43 2.52691 41.9842 2.05383 40.9684 1.56641 39.9219-7.02695 21.4473-7.02695 21.4473-23 10-20.7625 7.7625-19.1561 7.15471-16.2109 6.05469-14.7994 5.52295-14.7994 5.52295-13.3594 4.98047-12.3745 4.61566-11.3897 4.25086-10.375 3.875-8.88613 3.31619-8.88613 3.31619-7.36719 2.74609-4.91323 1.82586-2.4575 0.910723 0 0Z" fill="#F083AC" transform="translate(327 208)"/><path d="M0 0C3.11717 1.69542 5.22945 3.98427 7.375 6.8125 8.69901 11.4465 8.9105 15.0597 6.86719 19.4141 3.96523 24.0785 1.4269 27.3387-4 29-7.87222 29.4755-10.1268 29.4366-13.625 27.6875-16.0785 24.9112-17.0465 22.7128-18.4375 19.3125-19.5789 16.4183-19.5789 16.4183-21 14-24.1501 12.6202-24.1501 12.6202-27 13-26.75 11.125-26.75 11.125-26 9-23.9375 7.75-23.9375 7.75-22 7-22.66 6.34-23.32 5.68-24 5-23.625 2.875-23.625 2.875-23 1-21.68 1.66-20.36 2.32-19 3-19 3.66-19 4.32-19 5-18.0738 4.45859-18.0738 4.45859-17.1289 3.90625-11.4802 0.811067-6.49753-1.56537 0 0Z" fill="#D92329" transform="translate(232 167)"/><path d="M0 0C9.57 0 19.14 0 29 0 29 3.96 29 7.92 29 12 26.03 12 23.06 12 20 12 20 21.57 20 31.14 20 41 16.37 41 12.74 41 9 41 9 31.43 9 21.86 9 12 6.03 12 3.06 12 0 12 0 8.04 0 4.08 0 0Z" fill="#4863AC" transform="translate(310 327)"/><path d="M0 0C9.57 0 19.14 0 29 0 29 3.96 29 7.92 29 12 26.03 12 23.06 12 20 12 20 21.57 20 31.14 20 41 16.37 41 12.74 41 9 41 9 31.43 9 21.86 9 12 6.03 12 3.06 12 0 12 0 8.04 0 4.08 0 0Z" fill="#4863AC" transform="translate(203 327)"/><path d="M0 0C9.24 0 18.48 0 28 0 28 3.63 28 7.26 28 11 25.03 11 22.06 11 19 11 19 20.57 19 30.14 19 40 15.7 40 12.4 40 9 40 9 30.43 9 20.86 9 11 6.03 11 3.06 11 0 11 0 7.37 0 3.74 0 0Z" fill="#3E5BA9" transform="translate(444 327)"/><path d="M0 0C6.27 0 12.54 0 19 0 19 2.31 19 4.62 19 7 17.35 7 15.7 7 14 7 14 15.58 14 24.16 14 33 15.65 33 17.3 33 19 33 19 35.31 19 37.62 19 40 12.73 40 6.46 40 0 40 0 37.69 0 35.38 0 33 1.32 33 2.64 33 4 33 4 24.42 4 15.84 4 7 2.68 7 1.36 7 0 7 0 4.69 0 2.38 0 0Z" fill="#3F5CA9" transform="translate(268 327)"/><path d="M0 0C6.02479 7.53099 6.02479 7.53099 5.85938 10.6602 4.78035 14.8536 3.12223 18.5451 1.25 22.4375 0.747266 23.5251 0.747266 23.5251 0.234375 24.6348-2.07153 29.4955-4.76199 33.7034-8 38-10.4285 35.5715-10.5238 34.253-11.1484 30.9141-11.3495 29.9009-11.5506 28.8877-11.7578 27.8438-12.1676 25.7069-12.5713 23.5689-12.9688 21.4297-13.1724 20.4139-13.3761 19.3981-13.5859 18.3516-13.7617 17.4217-13.9375 16.4918-14.1187 15.5337-15.1758 12.4945-16.6043 11.1062-19 9-19.66 8.34-20.32 7.68-21 7-14.07 4.69-7.14 2.38 0 0Z" fill="#F083AC" transform="translate(356 198)"/><path d="M0 0C-1.9486 12.9907-1.9486 12.9907-4.5625 15.5-6.38425 17.401-6.3035 18.4771-6.5625 21.0625-7 25-7 25-9 27-9.7425 27.2062-10.485 27.4125-11.25 27.625-14.2703 29.1351-15.098 30.2842-17 33-19.3228 36.2817-20.8677 38.2388-25 39-26.3423 38.7047-27.6782 38.3765-29 38-28.1802 37.0332-27.3603 36.0664-26.5156 35.0703-18.0865 25.0086-18.0865 25.0086-13 13-16.7985 16.3832-19.0689 20.2019-21.5625 24.5625-22.3304 25.8996-23.1024 27.2343-23.8789 28.5664-24.2148 29.1537-24.5507 29.7409-24.8967 30.3459-26.1063 32.1594-27.3482 33.5773-29 35-29.66 35-30.32 35-31 35-30.6353 31.8092-30.2237 30.2525-28.0625 27.8125-25.8926 24.8536-25.601 23.4689-25.0625 19.9375-24.2831 15.2682-24.2831 15.2682-21.625 12.75-20.7588 12.1725-19.8925 11.595-19 11-18.3606 9.96875-17.7213 8.9375-17.0625 7.875-14.584 4.42011-13.0137 4.08704-9 3-7.97906 2.19563-7.97906 2.19563-6.9375 1.375-4.49168-0.36074-2.93333-0.244444 0 0Z" fill="#6A8346" transform="translate(353 98)"/><path d="M0 0C3.67222 0.34427 5.99878 1.55032 9 3.5625 11.3032 5.03914 12.8881 5.97271 15.5625 6.625 18.1562 5.95995 19.2391 5.13441 21.3125 3.5 25.2731 0.403037 28.0834 0.56872 33 1 33.875 3 33.875 3 34 6 31.4057 10.5333 27.8262 14.4681 24 18 24.6806 18.9281 25.3612 19.8563 26.0625 20.8125 26.7019 21.8644 27.3412 22.9163 28 24 27.67 24.99 27.34 25.98 27 27 25.5459 26.01 25.5459 26.01 24.0625 25 19.7441 22.4868 15.8737 22.6021 11 23 11.99 20.69 12.98 18.38 14 16 13.2627 15.7589 12.5253 15.5179 11.7656 15.2695 8.62548 13.8281 7.02422 12.2699 4.75 9.6875 4.06422 8.92824 3.37844 8.16898 2.67188 7.38672 0.894704 4.84968 0.366731 3.0471 0 0Z" fill="#F286AD" transform="translate(336 140)"/><path d="M0 0C3 1 3 1 4.1875 3.0625 4.45563 3.70187 4.72375 4.34125 5 5 6.98 4.67 8.96 4.34 11 4 10.625 5.9375 10.625 5.9375 10 8 9.01 8.495 9.01 8.495 8 9 8.49756 11.7564 8.49756 11.7564 10 14 10.4523 17.8898 10.1273 19.7636 8.25 23.25 5.08475 27.1186 5.08475 27.1186 2 28-2.99751 28.4543-5.97983 28.0742-10 25-11.5285 21.9431-11.2324 19.3702-11 16-9.5625 13.8125-9.5625 13.8125-8 12-7.87625 11.2987-7.7525 10.5975-7.625 9.875-7.41875 9.25625-7.2125 8.6375-7 8-6.19562 7.71125-5.39125 7.4225-4.5625 7.125-1.66336 6.20295-1.66336 6.20295-0.6875 2.875-0.460625 1.92625-0.23375 0.9775 0 0Z" fill="#D9262C" transform="translate(255 136)"/><path d="M0 0C2.81003 1.79364 4.5094 3.01881 6 6 6.40454 11.2591 5.66167 14.453 3 19-1.24368 19-2.50728 18.0962-5.98438 15.957-9.48315 14.2958-13.1744 14.1735-17 14-17.33 13.01-17.66 12.02-18 11-16.9258 9.0625-16.9258 9.0625-15.3125 7-14.793 6.31938-14.2735 5.63875-13.7383 4.9375-9.68013 0.414262-6.12639-1.13046 0 0Z" fill="#F37653" transform="translate(262 182)"/><path d="M0 0C2.35459 1.10551 3.96751 2.33232 6 4 5.74641 8.31095 5.4154 10.4971 2.625 13.875-1.48901 17.2054-4.81049 17.3774-10 17-12.2226 13.666-12.2968 12.4049-12.3125 8.5-12.3293 7.54094-12.346 6.58187-12.3633 5.59375-12 3-12 3-10.75 1.18359-7.45526-1.04477-3.80532-0.614805 0 0Z" fill="#F27655" transform="translate(254 198)"/><path d="M0 0C1.38672 1.53125 1.38672 1.53125 2.6875 3.5 3.12449 4.14969 3.56148 4.79938 4.01172 5.46875 4.50092 6.22672 4.50092 6.22672 5 7 1.42985 8.90093-2.15783 10.7661-5.75 12.625-7.27367 13.4371-7.27367 13.4371-8.82812 14.2656-9.80781 14.7684-10.7875 15.2711-11.7969 15.7891-12.6976 16.2604-13.5983 16.7317-14.5264 17.2173-17 18-17 18-19.2002 17.4507-21.5124 15.587-22.1173 13.7952-23 11-19.7349 9.15637-16.462 7.32691-13.1875 5.5-12.2587 4.97535-11.33 4.4507-10.373 3.91016-9.48037 3.41387-8.5877 2.91758-7.66797 2.40625-6.84579 1.94541-6.02361 1.48457-5.17651 1.00977-3 0-3 0 0 0Z" fill="#F3EBE8" transform="translate(248 225)"/><path d="M0 0C5.63803-0.291622 9.07692-0.0912371 14 3 14.6394 3.39188 15.2788 3.78375 15.9375 4.1875 17.4655 6.79415 17.1344 9.08442 16.6406 11.9883 15.5688 15.3541 13.8394 16.9995 11 19 8.1875 18.8125 8.1875 18.8125 6 18 5.98582 17.3361 5.97164 16.6723 5.95703 15.9883 5.68174 9.99218 5.68174 9.99218 2.4375 5.0625 1.63312 4.38188 0.82875 3.70125 0 3 0 2.01 0 1.02 0 0Z" fill="#F37654" transform="translate(265 179)"/><path d="M0 0C0.33 2.64 0.66 5.28 1 8-1.41118 8.89369-3.82682 9.76502-6.25 10.625-6.93191 10.8802-7.61383 11.1355-8.31641 11.3984-13.316 13.1459-13.316 13.1459-16.2344 12.5234-18.7371 10.364-20.2909 7.80773-22 5-19.085 4.1603-16.1683 3.32804-13.25 2.5-12.0125 2.14229-12.0125 2.14229-10.75 1.77734-9.95078 1.55176-9.15156 1.32617-8.32812 1.09375-7.59497 0.884277-6.86182 0.674805-6.10645 0.458984-4 0-4 0 0 0Z" fill="#ED86AE" transform="translate(374 177)"/><path d="M0 0C0.66 0.99 1.32 1.98 2 3-4.61424 5.73751-11.3015 8.28979-18 10.8125-19.2739 11.3018-19.2739 11.3018-20.5735 11.801-21.3742 12.1-22.175 12.399-23 12.707-23.7219 12.9801-24.4438 13.2531-25.1875 13.5344-27 14-27 14-29 13-21.436 3.26187-12.8769-2.52586 0 0Z" fill="#EF84AC" transform="translate(350 189)"/><path d="M0 0C3 1 3 1 4.1875 3.0625 4.45563 3.70187 4.72375 4.34125 5 5 6.98 4.67 8.96 4.34 11 4 10.625 5.9375 10.625 5.9375 10 8 9.01 8.495 9.01 8.495 8 9 8.33 11.64 8.66 14.28 9 17 8.4225 16.6906 7.845 16.3813 7.25 16.0625 4.23538 14.6345 4.23538 14.6345 1 14-0.645941 15.3959-0.645941 15.3959-2 17-2.66 17-3.32 17-4 17-4 15.02-4 13.04-4 11-5.32 10.67-6.64 10.34-8 10-7.67 9.34-7.34 8.68-7 8-6.19562 7.7525-5.39125 7.505-4.5625 7.25-1.67629 6.19045-1.67629 6.19045-0.6875 2.875-0.460625 1.92625-0.23375 0.9775 0 0Z" fill="#2A422C" transform="translate(255 136)"/><path d="M0 0C1.32 0.66 2.64 1.32 4 2 4 2.66 4 3.32 4 4 4.76312 3.505 5.52625 3.01 6.3125 2.5 9 1 9 1 12 1 11.7834 1.83531 11.7834 1.83531 11.5625 2.6875 11.3769 3.45062 11.1912 4.21375 11 5 10.7731 5.825 10.5463 6.65 10.3125 7.5 9.95112 10.3911 10.4722 11.5736 12 14 10.35 14 8.7 14 7 14 6.67 15.65 6.34 17.3 6 19 3.7522 16.9477 2.99778 15.9933 2 13-0.97 12.505-0.97 12.505-4 12-3.75 10.125-3.75 10.125-3 8-0.9375 6.75-0.9375 6.75 1 6 0.34 5.34-0.32 4.68-1 4-0.625 1.875-0.625 1.875 0 0Z" fill="#27412A" transform="translate(209 168)"/><path d="M0 0C5.61 0 11.22 0 17 0 17 2.31 17 4.62 17 7 11.39 7 5.78 7 0 7 0 4.69 0 2.38 0 0Z" fill="#405CA9" transform="translate(290 348)"/><path d="M0 0C2.20703 2.0625 2.20703 2.0625 4 4 1.0652 4.86458-1.87222 5.71697-4.8125 6.5625-6.06257 6.93278-6.06257 6.93278-7.33789 7.31055-8.14033 7.53936-8.94277 7.76816-9.76953 8.00391-10.5079 8.21862-11.2463 8.43332-12.0071 8.65454-14 9-14 9-17 8-15.0538 3.87853-12.8671 1.72609-8.90234-0.335938-5.62532-1.47987-3.26014-0.984193 0 0Z" fill="#EE84AC" transform="translate(357 169)"/><path d="M0 0C1.97105 2.93047 2.22733 5.27068 2.125 8.75 2.10695 9.54922 2.08891 10.3484 2.07031 11.1719 2.03551 12.0768 2.03551 12.0768 2 13-0.763792 12.921-2.46588 12.5356-4.44531 10.5508-6.64349 7.65547-7.92267 5.72692-8.3125 2.0625-8.20938 1.38188-8.10625 0.70125-8 0-5.04064-1.47968-3.1324-0.848358 0 0Z" fill="#EA7457" transform="translate(253 217)"/><path d="M0 0C2.9375 0.1875 2.9375 0.1875 3.9375 1.1875 4.25 4.0625 4.25 4.0625 3.9375 7.1875 2.1875 9.125 2.1875 9.125-0.0625 10.1875-2.23218 9.93954-3.50484 9.74516-5.0625 8.1875-5.25 5.25-5.25 5.25-5.0625 2.1875-3.0625 0.1875-3.0625 0.1875 0 0Z" fill="#EBA644" transform="translate(269.062 256.812)"/><path d="M0 0C5.445 1.485 5.445 1.485 11 3 11.33 4.65 11.66 6.3 12 8 11.67 8.33 11.34 8.66 11 9 6.51288 8.82742 4.49402 8.43095 1.0625 5.4375 0.381875 4.63312-0.29875 3.82875-1 3-0.67 2.01-0.34 1.02 0 0Z" fill="#F07353" transform="translate(256 231)"/><path d="M0 0C0.33 2.64 0.66 5.28 1 8-1.97 8.66-4.94 9.32-8 10-8 7.36-8 4.72-8 2-4.9119 0.235373-3.76688 0 0 0Z" fill="#F1E9E8" transform="translate(374 177)"/><path d="M0 0C2.33295-0.0424172 4.66703-0.0409294 7 0 8 1 8 1 8.25 3.9375 8.1675 4.94812 8.085 5.95875 8 7 4.77208 9.15194 3.71599 9.20086 0 9 0 6.03 0 3.06 0 0Z" fill="#EDE6E6" transform="translate(353 338)"/><path d="M0 0C2.33295-0.0424172 4.66703-0.0409294 7 0 8 1 8 1 8.25 3.9375 8.1675 4.94812 8.085 5.95875 8 7 4.77208 9.15194 3.71599 9.20086 0 9 0 6.03 0 3.06 0 0Z" fill="#EEE7E7" transform="translate(246 338)"/><path d="M0 0C0.66 0 1.32 0 2 0 1.6342 7.13307-2.67398 12.4903-7.375 17.5625-7.91125 18.0369-8.4475 18.5112-9 19-9.33 18.01-9.66 17.02-10 16-8.62564 13.3507-7.21319 10.8896-5.625 8.375-4.98691 7.33473-4.98691 7.33473-4.33594 6.27344-1.21221 1.21221-1.21221 1.21221 0 0Z" fill="#E9E4D9" transform="translate(338 111)"/><path d="M0 0C2.00721 0.286744 4.00859 0.618667 6 1 5.67 3.31 5.34 5.62 5 8 3.68 8 2.36 8 1 8-1 6-1 6-1.1875 3.4375-1 1-1 1 0 0Z" fill="#ECA84A" transform="translate(307 116)"/><path d="M0 0C2.12508 3.18762 2.50202 5.26512 3 9 2.34 9 1.68 9 1 9 1 16.26 1 23.52 1 31-1.97 31-4.94 31-8 31-8 30.67-8 30.34-8 30-5.36 30-2.72 30 0 30 0 20.1 0 10.2 0 0Z" fill="#B7BBD3" transform="translate(138 337)"/><path d="M0 0C1.32 0 2.64 0 4 0 4.33 2.31 4.66 4.62 5 7 3.34385 7.38219 1.67543 7.71395 0 8-0.33 7.67-0.66 7.34-1 7-0.712699 4.66055-0.380632 2.32609 0 0Z" fill="#EBA747" transform="translate(361 120)"/><path d="M0 0C2.125 0.375 2.125 0.375 4 1 3.125 5.875 3.125 5.875 2 7 0.333829 7.04064-1.33388 7.04272-3 7-2.25 2.25-2.25 2.25 0 0Z" fill="#ECAB50" transform="translate(292 184)"/><path d="M0 0C1.67543 0.286049 3.34385 0.617812 5 1 4.67 2.65 4.34 4.3 4 6 2.0625 6.5625 2.0625 6.5625 0 7-1 6-1 6-1.125 3.5-1 1-1 1 0 0Z" fill="#ECAA4E" transform="translate(351 245)"/><path d="M0 0C2.125 0.375 2.125 0.375 4 1 4.5625 2.9375 4.5625 2.9375 5 5 4 6 4 6 1.4375 6.0625 0.230937 6.03156 0.230937 6.03156-1 6-1.625 4.125-1.625 4.125-2 2-1.34 1.34-0.68 0.68 0 0Z" fill="#EBA746" transform="translate(231 134)"/><path d="M0 0C0.66 0.33 1.32 0.66 2 1 2 2.32 2 3.64 2 5-3.94 3.515-3.94 3.515-10 2-5.98936-0.00531963-4.32816-0.282271 0 0Z" fill="#DE715B" transform="translate(269 229)"/><path d="M0 0C0.66 0.33 1.32 0.66 2 1 1.52355 5.28807 0.340975 7.26647-3 10-3.66 10-4.32 10-5 10-4.49701 5.59886-2.91227 3.28805 0 0Z" fill="#798E57" transform="translate(327 123)"/><path d="M0 0C0.99 0 1.98 0 3 0 3.33 1.65 3.66 3.3 4 5 2.35 5.33 0.7 5.66-1 6-1.625 4.125-1.625 4.125-2 2-1.34 1.34-0.68 0.68 0 0Z" fill="#ECAA4D" transform="translate(226 206)"/><path d="M0 0C6.11775-0.499408 9.02496 0.750994 14 4 13.34 4.66 12.68 5.32 12 6 11.3194 5.52563 10.6388 5.05125 9.9375 4.5625 6.58158 2.77744 3.75839 2.36847 0 2 0 1.34 0 0.68 0 0Z" fill="#F7DAD0" transform="translate(247 196)"/></svg>