<?xml version="1.0" encoding="UTF-8"?>
<svg version="1.1" xmlns="http://www.w3.org/2000/svg" width="600" height="480">
<path d="M0 0 C6.67095994 -0.52944126 10.03751084 0.24553311 15.6640625 3.76953125 C18.24752622 5.13038588 20.43825079 5.60312586 23.3125 6.0625 C27.42575473 6.75016488 29.48591612 7.48028257 32 11 C32.5878125 12.2065625 32.5878125 12.2065625 33.1875 13.4375 C35.55976639 16.79139387 38.29968759 18.00707209 41.94140625 19.7890625 C44 21 44 21 46 24 C46.32506653 25.71979644 46.58968384 27.4514928 46.8125 29.1875 C48.30224896 37.92967023 52.26102302 42.60881842 59 48 C60.75670469 50.71490725 61 51.71434047 61 55 C50.94721252 53.14001289 44.68271125 41.69359052 39 34 C35.02853924 28.65771945 31.32935554 24.02951273 26 20 C29.09919517 35.17314303 41.49648468 44.73925713 52.11230469 55.14404297 C53.04671387 56.0627417 53.04671387 56.0627417 54 57 C54.73895508 57.69625488 55.47791016 58.39250977 56.23925781 59.10986328 C58 61 58 61 58 63 C58.69222656 62.75878418 59.38445312 62.51756836 60.09765625 62.26904297 C77.81695586 56.13207211 95.57410217 50.61404342 114 47 C126.63630096 103.3434608 126.63630096 103.3434608 111 129 C104.68336871 137.57019219 96.86994238 143.36939394 88 149 C88.825 149.7425 89.65 150.485 90.5 151.25 C93 154 93 154 93 158 C83.51232236 163.13079848 73.81080555 167.42036355 63.75 171.3125 C62.13665771 171.94260986 62.13665771 171.94260986 60.49072266 172.58544922 C53.42983463 175.2722785 46.36835348 177.33641818 39 179 C38.875 171.25 38.875 171.25 40 169 C38.37191406 169.23976563 38.37191406 169.23976563 36.7109375 169.484375 C31.35142216 170.14930387 26.02022148 170.22175277 20.625 170.25 C19.64789063 170.270625 18.67078125 170.29125 17.6640625 170.3125 C1.53841041 170.39827475 -11.43763432 162.85239586 -23 152 C-31.88410319 142.80065444 -38.60551529 131.87914782 -45.53295898 121.19140625 C-46.97410078 118.96956281 -46.97410078 118.96956281 -48.68774414 116.90234375 C-50 115 -50 115 -50 112 C-46.40769674 110.05994191 -42.81473843 108.12110295 -39.22119141 106.18334961 C-38.0009624 105.52514885 -36.78090714 104.86662589 -35.56103516 104.20776367 C-33.7989698 103.25613312 -32.03620939 102.30578991 -30.2734375 101.35546875 C-28.68668213 100.49924927 -28.68668213 100.49924927 -27.06787109 99.62573242 C-24.067566 98.03580471 -21.04331449 96.50570278 -18 95 C-18.639375 94.71125 -19.27875 94.4225 -19.9375 94.125 C-22 93 -22 93 -23 91 C-23.14716542 89.19156337 -23.2210887 87.37668434 -23.25 85.5625 C-23.27578125 84.59441406 -23.3015625 83.62632812 -23.328125 82.62890625 C-23 80 -23 80 -21.75390625 78.1796875 C-18.45296692 75.95945659 -14.80721984 76.38488795 -11 77 C-8.6454071 78.10551008 -7.03248731 79.33231811 -5 81 C-5.33 83.31 -5.66 85.62 -6 88 C-2.00779639 87.20736979 1.60246761 85.52821846 5.30859375 83.90234375 C6.78377881 83.26227746 8.25904228 82.62239186 9.734375 81.98266602 C10.50330078 81.6480838 11.27222656 81.31350159 12.06445312 80.96878052 C23.13828226 76.15630742 34.21661402 71.36704348 45.5 67.0625 C46.33974365 66.73950928 47.1794873 66.41651855 48.04467773 66.08374023 C51.15471411 64.91892147 53.65113762 64 57 64 C57 63.34 57 62.68 57 62 C56.05640625 62.05220703 56.05640625 62.05220703 55.09375 62.10546875 C49.33330047 62.28765164 43.84479148 62.45640434 39 59 C36.70750415 56.27378872 34.71243176 53.47558035 32.76171875 50.49609375 C29.57258517 45.97756524 26.15909867 45.50052389 21.05859375 44.5625 C19 44 19 44 17 42 C16.76171875 39.828125 16.76171875 39.828125 16.6875 37.25 C16.23996782 31.79324804 14.88610911 29.79778845 11 26 C10.175 25.319375 9.35 24.63875 8.5 23.9375 C5.15359307 20.00547186 3.81221599 15.79764421 2.11328125 10.9609375 C1.08096157 7.87619189 1.08096157 7.87619189 -1 5 C-0.625 2.3125 -0.625 2.3125 0 0 Z " fill="#445FAA" transform="translate(265,121)"/>
<path d="M0 0 C2.09594616 5.30973028 2.65530012 10.35654152 3 16 C3.06574219 16.9075 3.13148438 17.815 3.19921875 18.75 C3.69588902 31.35514904 0.54382145 43.79588887 -7 54 C-7.43957031 54.62003906 -7.87914062 55.24007812 -8.33203125 55.87890625 C-17.27081305 67.39370586 -32.312258 74.64595265 -45.5 80.0625 C-46.5415625 80.49296631 -47.583125 80.92343262 -48.65625 81.36694336 C-67.15502442 88.84948225 -89.65165023 95.92172261 -109.203125 88.3125 C-122.62172489 82.0155034 -134.82665254 71.10685708 -142 58 C-140.78118322 54.34354967 -140.02795648 54.18106657 -136.6953125 52.484375 C-134.84419724 51.56148469 -132.98709886 50.65052322 -131.125 49.75 C-130.22007812 49.27820313 -129.31515625 48.80640625 -128.3828125 48.3203125 C-121.54648095 44.99925371 -116.44769673 44.57434446 -109 46 C-109 44.02 -109 42.04 -109 40 C-107.68 40.33 -106.36 40.66 -105 41 C-105 40.01 -105 39.02 -105 38 C-78.41801677 26.19301586 -51.49266438 15.80202273 -24 6.3125 C-23.08938812 5.99596466 -22.17877625 5.67942932 -21.24057007 5.353302 C-18.64233408 4.45241202 -16.04063121 3.56241243 -13.4375 2.67578125 C-12.65856888 2.40449402 -11.87963776 2.13320679 -11.07710266 1.85369873 C-7.26500053 0.5695767 -4.08285819 -0.3461334 0 0 Z " fill="#F7EDE9" transform="translate(376,193)"/>
<path d="M0 0 C6.67095994 -0.52944126 10.03751084 0.24553311 15.6640625 3.76953125 C18.24752622 5.13038588 20.43825079 5.60312586 23.3125 6.0625 C27.42575473 6.75016488 29.48591612 7.48028257 32 11 C32.5878125 12.2065625 32.5878125 12.2065625 33.1875 13.4375 C35.55976639 16.79139387 38.29968759 18.00707209 41.94140625 19.7890625 C44 21 44 21 46 24 C46.32506653 25.71979644 46.58968384 27.4514928 46.8125 29.1875 C48.30224896 37.92967023 52.26102302 42.60881842 59 48 C60.75670469 50.71490725 61 51.71434047 61 55 C50.94721252 53.14001289 44.68271125 41.69359052 39 34 C35.02853924 28.65771945 31.32935554 24.02951273 26 20 C29.13066181 35.32719842 44.24553845 50.49702563 57 59 C57 59.99 57 60.98 57 62 C44.1978889 62.70831352 44.1978889 62.70831352 39 59 C36.70750415 56.27378872 34.71243176 53.47558035 32.76171875 50.49609375 C29.57258517 45.97756524 26.15909867 45.50052389 21.05859375 44.5625 C19 44 19 44 17 42 C16.76171875 39.828125 16.76171875 39.828125 16.6875 37.25 C16.23996782 31.79324804 14.88610911 29.79778845 11 26 C9.7625 24.9790625 9.7625 24.9790625 8.5 23.9375 C5.15359307 20.00547186 3.81221599 15.79764421 2.11328125 10.9609375 C1.08096157 7.87619189 1.08096157 7.87619189 -1 5 C-0.625 2.3125 -0.625 2.3125 0 0 Z " fill="#688244" transform="translate(265,121)"/>
<path d="M0 0 C0.33 2.64 0.66 5.28 1 8 C-0.36088745 8.44315552 -0.36088745 8.44315552 -1.74926758 8.89526367 C-39.77408211 21.30564077 -76.79853672 35.24416063 -113.25 51.75 C-113.93660706 52.06056335 -114.62321411 52.37112671 -115.33062744 52.69110107 C-117.33137704 53.59792863 -119.33017169 54.5089046 -121.328125 55.421875 C-121.96777191 55.71281036 -122.60741882 56.00374573 -123.26644897 56.30349731 C-126.54602307 57.81084454 -129.76865898 59.38388393 -132.95507812 61.08007812 C-133.5908075 61.41469055 -134.22653687 61.74930298 -134.88153076 62.09405518 C-136.62858616 63.02193916 -138.36497685 63.96982343 -140.10058594 64.91894531 C-143 66 -143 66 -145.26660156 65.49511719 C-147.48072623 63.5853567 -148.1293184 61.75715841 -149 59 C-145.73486809 57.15637057 -142.46201438 55.32690521 -139.1875 53.5 C-138.25873047 52.97535156 -137.32996094 52.45070312 -136.37304688 51.91015625 C-135.48037109 51.41386719 -134.58769531 50.91757813 -133.66796875 50.40625 C-132.84578857 49.94541016 -132.0236084 49.48457031 -131.17651367 49.00976562 C-129 48 -129 48 -126 48 C-125.525625 48.639375 -125.05125 49.27875 -124.5625 49.9375 C-123.00341733 52.44315448 -123.00341733 52.44315448 -119 53 C-119 49.7 -119 46.4 -119 43 C-84.40716194 26.53314077 -48.95151939 12.58690051 -12.0625 2.125 C-11.3104126 1.9094043 -10.5583252 1.69380859 -9.78344727 1.47167969 C-6.35804351 0.52168844 -3.58523105 0 0 0 Z " fill="#F3EAE8" transform="translate(374,177)"/>
<path d="M0 0 C10.64669357 4.19762112 18.24853707 11.85942355 22.98046875 22.14453125 C24.26526285 25.74293924 24.51273526 28.23994143 24 32 C18.41975106 33.5737556 13.41574574 34.35885775 7.625 34.3125 C6.88185547 34.30686035 6.13871094 34.3012207 5.37304688 34.29541016 C-5.94463304 34.04626332 -14.32519363 30.26946305 -22.625 22.5625 C-24.59543263 18.89033011 -24.17986271 16.95601028 -23 13 C-18.2534111 5.65044299 -9.30079365 -2.55315904 0 0 Z " fill="#F283AB" transform="translate(299,223)"/>
<path d="M0 0 C2.97 0 5.94 0 9 0 C9 13.53 9 27.06 9 41 C4.38 41 -0.24 41 -5 41 C-7.64 32.09 -10.28 23.18 -13 14 C-13.33 22.91 -13.66 31.82 -14 41 C-16.64 41 -19.28 41 -22 41 C-22 27.8 -22 14.6 -22 1 C-17.71 1 -13.42 1 -9 1 C-6.20805448 7.64030286 -3.53084415 14.25108226 -1 21 C-0.67 14.07 -0.34 7.14 0 0 Z " fill="#425EAA" transform="translate(152,326)"/>
<path d="M0 0 C5.0428125 -0.0928125 5.0428125 -0.0928125 10.1875 -0.1875 C11.76374146 -0.22846802 11.76374146 -0.22846802 13.37182617 -0.27026367 C19.60753074 -0.3258702 23.20629423 0.30262891 27.8125 4.75 C29.55246428 8.04677442 29.44406988 10.32056389 29 14 C26.11340206 19.56701031 26.11340206 19.56701031 22.75 20.875 C22.1725 20.91625 21.595 20.9575 21 21 C21 21.66 21 22.32 21 23 C21.61875 23.268125 22.2375 23.53625 22.875 23.8125 C25 25 25 25 27 28 C28.11404521 32.01056276 28.08124784 35.85636019 28 40 C24.37 40 20.74 40 17 40 C16.731875 38.453125 16.46375 36.90625 16.1875 35.3125 C15.39462821 31.34251784 14.52147955 28.25691109 12 25 C11.34 24.67 10.68 24.34 10 24 C10 29.28 10 34.56 10 40 C6.7 40 3.4 40 0 40 C0 26.8 0 13.6 0 0 Z " fill="#405DA9" transform="translate(236,327)"/>
<path d="M0 0 C5.0428125 -0.0928125 5.0428125 -0.0928125 10.1875 -0.1875 C11.76374146 -0.22846802 11.76374146 -0.22846802 13.37182617 -0.27026367 C19.60753074 -0.3258702 23.20629423 0.30262891 27.8125 4.75 C29.55246428 8.04677442 29.44406988 10.32056389 29 14 C27.375 17.375 27.375 17.375 25 20 C21.75 20.875 21.75 20.875 19 21 C19 21.66 19 22.32 19 23 C19.763125 23.0825 20.52625 23.165 21.3125 23.25 C24.57472221 24.16038759 25.31109792 25.12886646 27 28 C28.37020997 32.11062991 28.06276637 35.66912062 28 40 C24.37 40 20.74 40 17 40 C16.82984375 39.09636719 16.6596875 38.19273437 16.484375 37.26171875 C16.24203125 36.08222656 15.9996875 34.90273438 15.75 33.6875 C15.51796875 32.51574219 15.2859375 31.34398437 15.046875 30.13671875 C14.17708874 26.54020947 14.17708874 26.54020947 10 24 C10 29.28 10 34.56 10 40 C6.7 40 3.4 40 0 40 C0 26.8 0 13.6 0 0 Z " fill="#405CA9" transform="translate(343,327)"/>
<path d="M0 0 C3.3 0 6.6 0 10 0 C10.01981934 0.74161377 10.03963867 1.48322754 10.06005859 2.24731445 C10.15522928 5.60273834 10.26494094 8.95753286 10.375 12.3125 C10.4059375 13.47974609 10.436875 14.64699219 10.46875 15.84960938 C10.50742188 16.96787109 10.54609375 18.08613281 10.5859375 19.23828125 C10.6173584 20.26993408 10.6487793 21.30158691 10.68115234 22.36450195 C10.82674629 25.22843236 10.82674629 25.22843236 13 28 C16 28.5 16 28.5 19 28 C21.25870108 24.61194839 21.29259413 23.22649259 21.4140625 19.23828125 C21.45273438 18.12001953 21.49140625 17.00175781 21.53125 15.84960938 C21.5621875 14.68236328 21.593125 13.51511719 21.625 12.3125 C21.66367188 11.13365234 21.70234375 9.95480469 21.7421875 8.74023438 C21.83654391 5.82698023 21.92213161 2.91373393 22 0 C25.3 0 28.6 0 32 0 C32.07453622 4.1625612 32.12878254 8.3247618 32.16479492 12.48779297 C32.17981825 13.90192437 32.20024305 15.31600968 32.22631836 16.72998047 C32.26298954 18.77062397 32.27979036 20.81064792 32.29296875 22.8515625 C32.3086792 24.07697754 32.32438965 25.30239258 32.34057617 26.56494141 C31.83806124 31.63331781 30.22516482 34.86672254 26.5 38.3125 C21.35502571 41.78535764 16.00258722 41.47230658 10 41 C6.22325423 39.71860411 4.59208716 38.77583835 2.1875 35.625 C0.05341738 30.9075542 -0.12110946 26.52297241 -0.09765625 21.38671875 C-0.09443359 20.13955078 -0.09121094 18.89238281 -0.08789062 17.60742188 C-0.07532227 15.66706055 -0.07532227 15.66706055 -0.0625 13.6875 C-0.05798828 12.37458984 -0.05347656 11.06167969 -0.04882812 9.70898438 C-0.03705949 6.4726099 -0.0206176 3.23632822 0 0 Z " fill="#3F5CA9" transform="translate(167,327)"/>
<path d="M0 0 C3.3 0 6.6 0 10 0 C10.01981934 0.74161377 10.03963867 1.48322754 10.06005859 2.24731445 C10.15522928 5.60273834 10.26494094 8.95753286 10.375 12.3125 C10.4059375 13.47974609 10.436875 14.64699219 10.46875 15.84960938 C10.50742187 16.96787109 10.54609375 18.08613281 10.5859375 19.23828125 C10.6173584 20.26993408 10.6487793 21.30158691 10.68115234 22.36450195 C10.82674629 25.22843236 10.82674629 25.22843236 13 28 C16 28.5 16 28.5 19 28 C21.25870108 24.61194839 21.29259413 23.22649259 21.4140625 19.23828125 C21.45273437 18.12001953 21.49140625 17.00175781 21.53125 15.84960938 C21.5621875 14.68236328 21.593125 13.51511719 21.625 12.3125 C21.66367187 11.13365234 21.70234375 9.95480469 21.7421875 8.74023438 C21.83654391 5.82698023 21.92213161 2.91373393 22 0 C25.3 0 28.6 0 32 0 C32.05834421 4.52077862 32.09371252 9.04145953 32.125 13.5625 C32.14175781 14.83931641 32.15851563 16.11613281 32.17578125 17.43164062 C32.25211874 32.12660713 32.25211874 32.12660713 28.1875 37.3125 C22.68107255 41.56031546 16.71153867 41.80814416 10 41 C4.85146319 38.4257316 1.817992 35.45397599 0 30 C-0.08378628 27.7161483 -0.10729915 25.429899 -0.09765625 23.14453125 C-0.0962413 22.48289474 -0.09482635 21.82125824 -0.09336853 21.13957214 C-0.08777996 19.03050172 -0.07522965 16.92153823 -0.0625 14.8125 C-0.05748352 13.38086091 -0.05292087 11.94922015 -0.04882812 10.51757812 C-0.0378143 7.01168412 -0.02055755 3.5058525 0 0 Z " fill="#3F5CA9" transform="translate(376,327)"/>
<path d="M0 0 C0.14285714 8.57142857 0.14285714 8.57142857 -1 12 C-1.54140625 11.83628906 -2.0828125 11.67257812 -2.640625 11.50390625 C-5.40222593 10.91409413 -7.92818139 10.90390692 -10.75 10.9375 C-11.73484375 10.94652344 -12.7196875 10.95554687 -13.734375 10.96484375 C-14.85585938 10.98224609 -14.85585938 10.98224609 -16 11 C-16 11.99 -16 12.98 -16 14 C-15.18015625 14.24234375 -14.3603125 14.4846875 -13.515625 14.734375 C-11.89914062 15.23710937 -11.89914062 15.23710937 -10.25 15.75 C-9.18265625 16.07484375 -8.1153125 16.3996875 -7.015625 16.734375 C-3.79087667 18.08776679 -2.11956509 19.23293054 0 22 C0.93184336 26.10157823 0.42437563 29.93906093 -1.125 33.8125 C-4.30421142 37.52157999 -6.84996999 39.7345642 -11.84765625 40.3515625 C-17.69092512 40.51085855 -22.09182438 40.27211708 -27 37 C-26.34 33.7 -25.68 30.4 -25 27 C-24.01 27.165 -23.02 27.33 -22 27.5 C-17.97267058 28.08474517 -14.06525377 28.07132024 -10 28 C-9.34 26.68 -8.68 25.36 -8 24 C-8.72445313 23.82984375 -9.44890625 23.6596875 -10.1953125 23.484375 C-15.88486028 22.05819502 -20.4292887 20.72873816 -25 17 C-26.85110583 13.29778834 -26.46454795 9.04093083 -26 5 C-20.40813451 -4.58605513 -9.27502593 -3.297787 0 0 Z " fill="#435FAB" transform="translate(440,328)"/>
<path d="M0 0 C0.33 0.66 0.66 1.32 1 2 C1.763125 2.226875 2.52625 2.45375 3.3125 2.6875 C7.05612613 4.51578253 8.33681037 7.33648207 10 11 C11.13276229 14.33296827 11.99125166 17.70355306 12.8125 21.125 C13.04130859 22.00542969 13.27011719 22.88585937 13.50585938 23.79296875 C15.60037243 32.28631526 15.60037243 32.28631526 14 36 C12.00390625 38.01953125 12.00390625 38.01953125 9.5625 39.8125 C8.75941406 40.41707031 7.95632813 41.02164063 7.12890625 41.64453125 C5 43 5 43 3 43 C2.52691406 41.98421875 2.05382812 40.9684375 1.56640625 39.921875 C-7.02694548 21.44734149 -7.02694548 21.44734149 -23 10 C-20.76249789 7.76249789 -19.15614791 7.15470585 -16.2109375 6.0546875 C-14.79941406 5.52294922 -14.79941406 5.52294922 -13.359375 4.98046875 C-12.37453125 4.61566406 -11.3896875 4.25085938 -10.375 3.875 C-8.88613281 3.31619141 -8.88613281 3.31619141 -7.3671875 2.74609375 C-4.91323225 1.82586053 -2.45749712 0.91072324 0 0 Z " fill="#F083AC" transform="translate(327,208)"/>
<path d="M0 0 C3.11717207 1.69542121 5.22944874 3.98427334 7.375 6.8125 C8.69900528 11.44651846 8.91049549 15.05970271 6.8671875 19.4140625 C3.96522898 24.07846703 1.4269007 27.33870387 -4 29 C-7.87221584 29.47553528 -10.12678023 29.43660989 -13.625 27.6875 C-16.07848607 24.91118681 -17.04645184 22.71283994 -18.4375 19.3125 C-19.5789477 16.41832246 -19.5789477 16.41832246 -21 14 C-24.15010169 12.62015956 -24.15010169 12.62015956 -27 13 C-26.75 11.125 -26.75 11.125 -26 9 C-23.9375 7.75 -23.9375 7.75 -22 7 C-22.66 6.34 -23.32 5.68 -24 5 C-23.625 2.875 -23.625 2.875 -23 1 C-21.68 1.66 -20.36 2.32 -19 3 C-19 3.66 -19 4.32 -19 5 C-18.07380859 4.45859375 -18.07380859 4.45859375 -17.12890625 3.90625 C-11.48019702 0.81106686 -6.49753039 -1.56537061 0 0 Z " fill="#D92329" transform="translate(232,167)"/>
<path d="M0 0 C9.57 0 19.14 0 29 0 C29 3.96 29 7.92 29 12 C26.03 12 23.06 12 20 12 C20 21.57 20 31.14 20 41 C16.37 41 12.74 41 9 41 C9 31.43 9 21.86 9 12 C6.03 12 3.06 12 0 12 C0 8.04 0 4.08 0 0 Z " fill="#4863AC" transform="translate(310,327)"/>
<path d="M0 0 C9.57 0 19.14 0 29 0 C29 3.96 29 7.92 29 12 C26.03 12 23.06 12 20 12 C20 21.57 20 31.14 20 41 C16.37 41 12.74 41 9 41 C9 31.43 9 21.86 9 12 C6.03 12 3.06 12 0 12 C0 8.04 0 4.08 0 0 Z " fill="#4863AC" transform="translate(203,327)"/>
<path d="M0 0 C9.24 0 18.48 0 28 0 C28 3.63 28 7.26 28 11 C25.03 11 22.06 11 19 11 C19 20.57 19 30.14 19 40 C15.7 40 12.4 40 9 40 C9 30.43 9 20.86 9 11 C6.03 11 3.06 11 0 11 C0 7.37 0 3.74 0 0 Z " fill="#3E5BA9" transform="translate(444,327)"/>
<path d="M0 0 C6.27 0 12.54 0 19 0 C19 2.31 19 4.62 19 7 C17.35 7 15.7 7 14 7 C14 15.58 14 24.16 14 33 C15.65 33 17.3 33 19 33 C19 35.31 19 37.62 19 40 C12.73 40 6.46 40 0 40 C0 37.69 0 35.38 0 33 C1.32 33 2.64 33 4 33 C4 24.42 4 15.84 4 7 C2.68 7 1.36 7 0 7 C0 4.69 0 2.38 0 0 Z " fill="#3F5CA9" transform="translate(268,327)"/>
<path d="M0 0 C6.02479339 7.53099174 6.02479339 7.53099174 5.859375 10.66015625 C4.78034941 14.85364207 3.12222752 18.54505638 1.25 22.4375 C0.74726563 23.52514648 0.74726563 23.52514648 0.234375 24.63476562 C-2.07153201 29.49551278 -4.76198978 33.70340951 -8 38 C-10.42848368 35.57151632 -10.52379628 34.25302213 -11.1484375 30.9140625 C-11.34953125 29.90085938 -11.550625 28.88765625 -11.7578125 27.84375 C-12.16755054 25.70688833 -12.57125101 23.56885968 -12.96875 21.4296875 C-13.17242187 20.41390625 -13.37609375 19.398125 -13.5859375 18.3515625 C-13.7617334 17.42166504 -13.9375293 16.49176758 -14.11865234 15.53369141 C-15.17584918 12.49447015 -16.60429486 11.10622171 -19 9 C-19.66 8.34 -20.32 7.68 -21 7 C-14.07 4.69 -7.14 2.38 0 0 Z " fill="#F083AC" transform="translate(356,198)"/>
<path d="M0 0 C-1.94859813 12.99065421 -1.94859813 12.99065421 -4.5625 15.5 C-6.38425226 17.40095888 -6.30350097 18.47713465 -6.5625 21.0625 C-7 25 -7 25 -9 27 C-9.7425 27.20625 -10.485 27.4125 -11.25 27.625 C-14.27026251 29.13513125 -15.09796212 30.28420365 -17 33 C-19.32280108 36.28170102 -20.86769825 38.23878652 -25 39 C-26.34226943 38.70470073 -27.6781965 38.37646302 -29 38 C-28.18015625 37.03320312 -27.3603125 36.06640625 -26.515625 35.0703125 C-18.0865311 25.00855981 -18.0865311 25.00855981 -13 13 C-16.79853451 16.383205 -19.06893918 20.20192232 -21.5625 24.5625 C-22.33039229 25.89958123 -23.10240056 27.23430876 -23.87890625 28.56640625 C-24.2147876 29.15365479 -24.55066895 29.74090332 -24.89672852 30.34594727 C-26.1063048 32.15937486 -27.34818083 33.57732244 -29 35 C-29.66 35 -30.32 35 -31 35 C-30.63533316 31.80916511 -30.22368464 30.25254718 -28.0625 27.8125 C-25.89262097 24.85357405 -25.60101004 23.46888316 -25.0625 19.9375 C-24.28314018 15.26823806 -24.28314018 15.26823806 -21.625 12.75 C-20.75875 12.1725 -19.8925 11.595 -19 11 C-18.360625 9.96875 -17.72125 8.9375 -17.0625 7.875 C-14.58399161 4.42010952 -13.01368265 4.08703905 -9 3 C-7.9790625 2.195625 -7.9790625 2.195625 -6.9375 1.375 C-4.49168514 -0.36073958 -2.93332739 -0.24444395 0 0 Z " fill="#6A8346" transform="translate(353,98)"/>
<path d="M0 0 C3.67221848 0.34427048 5.99877999 1.5503184 9 3.5625 C11.30321294 5.03913932 12.88812086 5.97271241 15.5625 6.625 C18.15617742 5.95995451 19.2391339 5.13441022 21.3125 3.5 C25.27312262 0.40303738 28.08340887 0.56872008 33 1 C33.875 3 33.875 3 34 6 C31.40567693 10.5333327 27.82617834 14.46814307 24 18 C24.680625 18.928125 25.36125 19.85625 26.0625 20.8125 C26.701875 21.864375 27.34125 22.91625 28 24 C27.67 24.99 27.34 25.98 27 27 C25.5459375 26.01 25.5459375 26.01 24.0625 25 C19.74410421 22.48683524 15.87367725 22.6021488 11 23 C11.99 20.69 12.98 18.38 14 16 C13.26265625 15.75894531 12.5253125 15.51789063 11.765625 15.26953125 C8.6254825 13.82808166 7.0242229 12.26987142 4.75 9.6875 C4.06421875 8.92824219 3.3784375 8.16898438 2.671875 7.38671875 C0.89470358 4.84968197 0.36673073 3.04710089 0 0 Z " fill="#F286AD" transform="translate(336,140)"/>
<path d="M0 0 C3 1 3 1 4.1875 3.0625 C4.455625 3.701875 4.72375 4.34125 5 5 C6.98 4.67 8.96 4.34 11 4 C10.625 5.9375 10.625 5.9375 10 8 C9.01 8.495 9.01 8.495 8 9 C8.49756092 11.75641416 8.49756092 11.75641416 10 14 C10.45230285 17.88980451 10.12727631 19.76362972 8.25 23.25 C5.08474576 27.11864407 5.08474576 27.11864407 2 28 C-2.9975122 28.45431929 -5.97983399 28.0742446 -10 25 C-11.52846661 21.94306678 -11.23242445 19.37015453 -11 16 C-9.5625 13.8125 -9.5625 13.8125 -8 12 C-7.87625 11.29875 -7.7525 10.5975 -7.625 9.875 C-7.41875 9.25625 -7.2125 8.6375 -7 8 C-6.195625 7.71125 -5.39125 7.4225 -4.5625 7.125 C-1.66336372 6.20295295 -1.66336372 6.20295295 -0.6875 2.875 C-0.460625 1.92625 -0.23375 0.9775 0 0 Z " fill="#D9262C" transform="translate(255,136)"/>
<path d="M0 0 C2.8100346 1.79363911 4.50940468 3.01880935 6 6 C6.40454244 11.25905171 5.66166853 14.45298292 3 19 C-1.243678 19 -2.50727888 18.09620125 -5.984375 15.95703125 C-9.48315441 14.29578909 -13.17438842 14.17349712 -17 14 C-17.33 13.01 -17.66 12.02 -18 11 C-16.92578125 9.0625 -16.92578125 9.0625 -15.3125 7 C-14.79300781 6.319375 -14.27351562 5.63875 -13.73828125 4.9375 C-9.68013427 0.41426202 -6.1263877 -1.1304644 0 0 Z " fill="#F37653" transform="translate(262,182)"/>
<path d="M0 0 C2.3545929 1.10551008 3.96751269 2.33231811 6 4 C5.7464147 8.31095008 5.4154009 10.49714628 2.625 13.875 C-1.48901001 17.20538906 -4.81049378 17.37741863 -10 17 C-12.22264871 13.66602694 -12.29675463 12.40485109 -12.3125 8.5 C-12.32925781 7.5409375 -12.34601563 6.581875 -12.36328125 5.59375 C-12 3 -12 3 -10.75 1.18359375 C-7.45526047 -1.04476803 -3.80531696 -0.61480461 0 0 Z " fill="#F27655" transform="translate(254,198)"/>
<path d="M0 0 C1.38671875 1.53125 1.38671875 1.53125 2.6875 3.5 C3.12449219 4.1496875 3.56148437 4.799375 4.01171875 5.46875 C4.50091797 6.22671875 4.50091797 6.22671875 5 7 C1.42984732 8.90093252 -2.1578316 10.76605285 -5.75 12.625 C-7.27367187 13.43710938 -7.27367187 13.43710938 -8.828125 14.265625 C-9.8078125 14.76835937 -10.7875 15.27109375 -11.796875 15.7890625 C-12.69760742 16.26037598 -13.59833984 16.73168945 -14.52636719 17.21728516 C-17 18 -17 18 -19.20019531 17.45068359 C-21.51237293 15.58701574 -22.11731957 13.79515469 -23 11 C-19.73486809 9.15637057 -16.46201438 7.32690521 -13.1875 5.5 C-12.25873047 4.97535156 -11.32996094 4.45070312 -10.37304688 3.91015625 C-9.48037109 3.41386719 -8.58769531 2.91757813 -7.66796875 2.40625 C-6.84578857 1.94541016 -6.0236084 1.48457031 -5.17651367 1.00976562 C-3 0 -3 0 0 0 Z " fill="#F3EBE8" transform="translate(248,225)"/>
<path d="M0 0 C5.63803035 -0.29162226 9.07691876 -0.09123706 14 3 C14.639375 3.391875 15.27875 3.78375 15.9375 4.1875 C17.46553568 6.7941491 17.1344427 9.0844185 16.640625 11.98828125 C15.56877807 15.35414203 13.83936386 16.9995391 11 19 C8.1875 18.8125 8.1875 18.8125 6 18 C5.98582031 17.33613281 5.97164063 16.67226562 5.95703125 15.98828125 C5.68173502 9.99218282 5.68173502 9.99218282 2.4375 5.0625 C1.633125 4.381875 0.82875 3.70125 0 3 C0 2.01 0 1.02 0 0 Z " fill="#F37654" transform="translate(265,179)"/>
<path d="M0 0 C0.33 2.64 0.66 5.28 1 8 C-1.41117508 8.89369425 -3.8268206 9.76501766 -6.25 10.625 C-6.93191406 10.88023437 -7.61382812 11.13546875 -8.31640625 11.3984375 C-13.31603516 13.14588061 -13.31603516 13.14588061 -16.234375 12.5234375 C-18.7371437 10.36396894 -20.29094408 7.80773473 -22 5 C-19.08503169 4.1602972 -16.1682814 3.32803997 -13.25 2.5 C-12.0125 2.14228516 -12.0125 2.14228516 -10.75 1.77734375 C-9.95078125 1.55175781 -9.1515625 1.32617188 -8.328125 1.09375 C-7.5949707 0.88427734 -6.86181641 0.67480469 -6.10644531 0.45898438 C-4 0 -4 0 0 0 Z " fill="#ED86AE" transform="translate(374,177)"/>
<path d="M0 0 C0.66 0.99 1.32 1.98 2 3 C-4.61423886 5.73751274 -11.30150795 8.28978937 -18 10.8125 C-19.27387573 11.30182007 -19.27387573 11.30182007 -20.57348633 11.80102539 C-21.37423584 12.10000732 -22.17498535 12.39898926 -23 12.70703125 C-23.721875 12.9800708 -24.44375 13.25311035 -25.1875 13.53442383 C-27 14 -27 14 -29 13 C-21.43604714 3.26186745 -12.8769254 -2.52585844 0 0 Z " fill="#EF84AC" transform="translate(350,189)"/>
<path d="M0 0 C3 1 3 1 4.1875 3.0625 C4.455625 3.701875 4.72375 4.34125 5 5 C6.98 4.67 8.96 4.34 11 4 C10.625 5.9375 10.625 5.9375 10 8 C9.01 8.495 9.01 8.495 8 9 C8.33 11.64 8.66 14.28 9 17 C8.4225 16.690625 7.845 16.38125 7.25 16.0625 C4.2353796 14.63452043 4.2353796 14.63452043 1 14 C-0.64594139 15.39588754 -0.64594139 15.39588754 -2 17 C-2.66 17 -3.32 17 -4 17 C-4 15.02 -4 13.04 -4 11 C-5.32 10.67 -6.64 10.34 -8 10 C-7.67 9.34 -7.34 8.68 -7 8 C-6.195625 7.7525 -5.39125 7.505 -4.5625 7.25 C-1.67628816 6.19044598 -1.67628816 6.19044598 -0.6875 2.875 C-0.460625 1.92625 -0.23375 0.9775 0 0 Z " fill="#2A422C" transform="translate(255,136)"/>
<path d="M0 0 C1.32 0.66 2.64 1.32 4 2 C4 2.66 4 3.32 4 4 C4.763125 3.505 5.52625 3.01 6.3125 2.5 C9 1 9 1 12 1 C11.7834375 1.8353125 11.7834375 1.8353125 11.5625 2.6875 C11.376875 3.450625 11.19125 4.21375 11 5 C10.773125 5.825 10.54625 6.65 10.3125 7.5 C9.95111563 10.39107497 10.47224381 11.5735637 12 14 C10.35 14 8.7 14 7 14 C6.67 15.65 6.34 17.3 6 19 C3.7522025 16.94766315 2.9977758 15.99332739 2 13 C-0.97 12.505 -0.97 12.505 -4 12 C-3.75 10.125 -3.75 10.125 -3 8 C-0.9375 6.75 -0.9375 6.75 1 6 C0.34 5.34 -0.32 4.68 -1 4 C-0.625 1.875 -0.625 1.875 0 0 Z " fill="#27412A" transform="translate(209,168)"/>
<path d="M0 0 C5.61 0 11.22 0 17 0 C17 2.31 17 4.62 17 7 C11.39 7 5.78 7 0 7 C0 4.69 0 2.38 0 0 Z " fill="#405CA9" transform="translate(290,348)"/>
<path d="M0 0 C2.20703125 2.0625 2.20703125 2.0625 4 4 C1.06520402 4.86458312 -1.87221519 5.71697187 -4.8125 6.5625 C-6.06256836 6.9327832 -6.06256836 6.9327832 -7.33789062 7.31054688 C-8.14033203 7.53935547 -8.94277344 7.76816406 -9.76953125 8.00390625 C-10.50792236 8.21861572 -11.24631348 8.4333252 -12.00708008 8.65454102 C-14 9 -14 9 -17 8 C-15.05375206 3.87853377 -12.86712718 1.72608517 -8.90234375 -0.3359375 C-5.62531847 -1.4798683 -3.26013941 -0.98419303 0 0 Z " fill="#EE84AC" transform="translate(357,169)"/>
<path d="M0 0 C1.97104839 2.93046598 2.22733297 5.270679 2.125 8.75 C2.10695312 9.54921875 2.08890625 10.3484375 2.0703125 11.171875 C2.03550781 12.07679688 2.03550781 12.07679688 2 13 C-0.76379198 12.92103451 -2.46587789 12.53556568 -4.4453125 10.55078125 C-6.64349184 7.65546504 -7.92266775 5.72692318 -8.3125 2.0625 C-8.209375 1.381875 -8.10625 0.70125 -8 0 C-5.04063954 -1.47968023 -3.13239866 -0.84835797 0 0 Z " fill="#EA7457" transform="translate(253,217)"/>
<path d="M0 0 C2.9375 0.1875 2.9375 0.1875 3.9375 1.1875 C4.25 4.0625 4.25 4.0625 3.9375 7.1875 C2.1875 9.125 2.1875 9.125 -0.0625 10.1875 C-2.23218209 9.93953633 -3.50483607 9.74516393 -5.0625 8.1875 C-5.25 5.25 -5.25 5.25 -5.0625 2.1875 C-3.0625 0.1875 -3.0625 0.1875 0 0 Z " fill="#EBA644" transform="translate(269.0625,256.8125)"/>
<path d="M0 0 C5.445 1.485 5.445 1.485 11 3 C11.33 4.65 11.66 6.3 12 8 C11.67 8.33 11.34 8.66 11 9 C6.51287922 8.82741843 4.49401598 8.43095011 1.0625 5.4375 C0.381875 4.633125 -0.29875 3.82875 -1 3 C-0.67 2.01 -0.34 1.02 0 0 Z " fill="#F07353" transform="translate(256,231)"/>
<path d="M0 0 C0.33 2.64 0.66 5.28 1 8 C-1.97 8.66 -4.94 9.32 -8 10 C-8 7.36 -8 4.72 -8 2 C-4.91190305 0.23537317 -3.76687864 0 0 0 Z " fill="#F1E9E8" transform="translate(374,177)"/>
<path d="M0 0 C2.33294775 -0.04241723 4.66702567 -0.04092937 7 0 C8 1 8 1 8.25 3.9375 C8.1675 4.948125 8.085 5.95875 8 7 C4.77208445 9.1519437 3.71599191 9.20086443 0 9 C0 6.03 0 3.06 0 0 Z " fill="#EDE6E6" transform="translate(353,338)"/>
<path d="M0 0 C2.33294775 -0.04241723 4.66702567 -0.04092937 7 0 C8 1 8 1 8.25 3.9375 C8.1675 4.948125 8.085 5.95875 8 7 C4.77208445 9.1519437 3.71599191 9.20086443 0 9 C0 6.03 0 3.06 0 0 Z " fill="#EEE7E7" transform="translate(246,338)"/>
<path d="M0 0 C0.66 0 1.32 0 2 0 C1.63420151 7.1330705 -2.67397625 12.4903428 -7.375 17.5625 C-7.91125 18.036875 -8.4475 18.51125 -9 19 C-9.33 18.01 -9.66 17.02 -10 16 C-8.6256377 13.35069735 -7.21319118 10.88963603 -5.625 8.375 C-4.98691406 7.33472656 -4.98691406 7.33472656 -4.3359375 6.2734375 C-1.21221301 1.21221301 -1.21221301 1.21221301 0 0 Z " fill="#E9E4D9" transform="translate(338,111)"/>
<path d="M0 0 C2.00720923 0.28674418 4.0085944 0.61866701 6 1 C5.67 3.31 5.34 5.62 5 8 C3.68 8 2.36 8 1 8 C-1 6 -1 6 -1.1875 3.4375 C-1 1 -1 1 0 0 Z " fill="#ECA84A" transform="translate(307,116)"/>
<path d="M0 0 C2.12508244 3.18762365 2.5020163 5.26512223 3 9 C2.34 9 1.68 9 1 9 C1 16.26 1 23.52 1 31 C-1.97 31 -4.94 31 -8 31 C-8 30.67 -8 30.34 -8 30 C-5.36 30 -2.72 30 0 30 C0 20.1 0 10.2 0 0 Z " fill="#B7BBD3" transform="translate(138,337)"/>
<path d="M0 0 C1.32 0 2.64 0 4 0 C4.33 2.31 4.66 4.62 5 7 C3.34385343 7.38218767 1.67542976 7.71395102 0 8 C-0.33 7.67 -0.66 7.34 -1 7 C-0.71269945 4.66055264 -0.38063221 2.3260857 0 0 Z " fill="#EBA747" transform="translate(361,120)"/>
<path d="M0 0 C2.125 0.375 2.125 0.375 4 1 C3.125 5.875 3.125 5.875 2 7 C0.33382885 7.04063832 -1.33388095 7.042721 -3 7 C-2.25 2.25 -2.25 2.25 0 0 Z " fill="#ECAB50" transform="translate(292,184)"/>
<path d="M0 0 C1.67542976 0.28604898 3.34385343 0.61781233 5 1 C4.67 2.65 4.34 4.3 4 6 C2.0625 6.5625 2.0625 6.5625 0 7 C-1 6 -1 6 -1.125 3.5 C-1 1 -1 1 0 0 Z " fill="#ECAA4E" transform="translate(351,245)"/>
<path d="M0 0 C2.125 0.375 2.125 0.375 4 1 C4.5625 2.9375 4.5625 2.9375 5 5 C4 6 4 6 1.4375 6.0625 C0.2309375 6.0315625 0.2309375 6.0315625 -1 6 C-1.625 4.125 -1.625 4.125 -2 2 C-1.34 1.34 -0.68 0.68 0 0 Z " fill="#EBA746" transform="translate(231,134)"/>
<path d="M0 0 C0.66 0.33 1.32 0.66 2 1 C2 2.32 2 3.64 2 5 C-3.94 3.515 -3.94 3.515 -10 2 C-5.98936074 -0.00531963 -4.32816129 -0.28227139 0 0 Z " fill="#DE715B" transform="translate(269,229)"/>
<path d="M0 0 C0.66 0.33 1.32 0.66 2 1 C1.52354792 5.28806873 0.34097516 7.26647487 -3 10 C-3.66 10 -4.32 10 -5 10 C-4.49701212 5.59885603 -2.91227269 3.28804981 0 0 Z " fill="#798E57" transform="translate(327,123)"/>
<path d="M0 0 C0.99 0 1.98 0 3 0 C3.33 1.65 3.66 3.3 4 5 C2.35 5.33 0.7 5.66 -1 6 C-1.625 4.125 -1.625 4.125 -2 2 C-1.34 1.34 -0.68 0.68 0 0 Z " fill="#ECAA4D" transform="translate(226,206)"/>
<path d="M0 0 C6.11774896 -0.49940808 9.02495953 0.75099398 14 4 C13.34 4.66 12.68 5.32 12 6 C11.319375 5.525625 10.63875 5.05125 9.9375 4.5625 C6.58158044 2.7774364 3.75838519 2.36846914 0 2 C0 1.34 0 0.68 0 0 Z " fill="#F7DAD0" transform="translate(247,196)"/>
</svg>
