<svg width="220" height="220" viewBox="0 0 220 220" fill="none" xmlns="http://www.w3.org/2000/svg">
  <defs>
    <linearGradient id="bg" x1="20" y1="20" x2="200" y2="200" gradientUnits="userSpaceOnUse">
      <stop stop-color="#1D4ED8"/>
      <stop offset="1" stop-color="#2563EB"/>
    </linearGradient>
    <linearGradient id="bowl" x1="48" y1="102" x2="172" y2="162" gradientUnits="userSpaceOnUse">
      <stop stop-color="#EFF6FF"/>
      <stop offset="1" stop-color="#DBEAFE"/>
    </linearGradient>
  </defs>

  <circle cx="110" cy="110" r="104" fill="#0B1020"/>
  <circle cx="110" cy="110" r="92" fill="url(#bg)" opacity="0.14"/>

  <path d="M52 112H168C168 146.242 142.242 170 108 170C73.7583 170 52 146.242 52 112Z" fill="url(#bowl)" stroke="#C7D2FE" stroke-width="4"/>
  <path d="M72 104C88.5 90.5 103 88 120.5 96.5C134 103 146 103 160 95" stroke="#A5B4FC" stroke-width="8" stroke-linecap="round"/>

  <ellipse cx="95" cy="95" rx="14" ry="11" fill="#F97316"/>
  <ellipse cx="128" cy="88" rx="12" ry="10" fill="#FB7185"/>
  <ellipse cx="117" cy="105" rx="14" ry="10" fill="#F43F5E"/>
  <ellipse cx="82" cy="84" rx="8" ry="7" fill="#EF4444"/>
  <path d="M132 68C140 74 145 81 147 90" stroke="#16A34A" stroke-width="6" stroke-linecap="round"/>
  <path d="M104 62C111 67 116 73 118 80" stroke="#22C55E" stroke-width="6" stroke-linecap="round"/>

  <text x="110" y="198" text-anchor="middle" font-family="Inter, Arial, sans-serif" font-size="22" font-weight="700" fill="#BFDBFE">Nutri-Trust</text>
</svg>
